<svg version="1.1" id="Layer_1" xmlns="http://www.w3.org/2000/svg" xmlns:xlink="http://www.w3.org/1999/xlink" x="0px" y="0px"
	 width="100%" viewBox="0 0 500 500" enable-background="new 0 0 500 500" xml:space="preserve">
<path fill="#000000" opacity="1.000000" stroke="none" 
	d="
M271.000000,501.000000 
	C180.666687,501.000000 90.833374,501.000000 1.000048,501.000000 
	C1.000032,334.333405 1.000032,167.666794 1.000016,1.000138 
	C167.666565,1.000092 334.333130,1.000092 500.999756,1.000046 
	C500.999847,167.666519 500.999847,334.333038 500.999939,500.999786 
	C424.500000,501.000000 348.000000,501.000000 271.000000,501.000000 
M186.378754,223.107590 
	C186.260529,223.567612 185.884186,224.246262 186.061676,224.455841 
	C191.141724,230.454315 190.749710,237.689392 190.749908,244.838760 
	C190.750214,256.122131 190.749985,267.405487 190.749985,278.805511 
	C192.299683,278.887451 193.449127,278.996521 194.598938,279.000549 
	C199.419739,279.017426 204.251175,279.202759 209.058914,278.950043 
	C215.289474,278.622528 226.726410,268.343536 227.025879,262.159149 
	C227.490768,252.558838 227.950272,242.827942 226.885300,233.323486 
	C225.966034,225.119614 218.865250,220.308777 212.173096,216.899506 
	C209.255463,215.413147 204.369843,217.789825 200.377975,218.412109 
	C200.453140,218.832138 200.528305,219.252182 200.603470,219.672211 
	C199.477127,218.359558 198.350784,217.046906 197.090164,215.577774 
	C193.476532,218.112854 190.227295,220.392303 186.378754,223.107590 
M309.266144,249.278839 
	C307.881378,247.684647 306.496613,246.090469 304.827240,244.168640 
	C314.709595,237.251892 313.682281,226.975403 314.226746,216.784378 
	C309.999817,216.784378 306.230774,216.784378 302.297394,216.784378 
	C301.584656,222.189102 301.292877,227.549988 300.021423,232.667496 
	C299.418396,235.094727 296.944611,237.057159 295.318329,239.230164 
	C293.803925,237.206848 291.753998,235.386139 290.894775,233.114944 
	C289.435211,229.257111 289.041473,225.000320 287.626038,221.120529 
	C285.585846,215.528320 283.787811,215.133820 279.005768,218.481201 
	C276.997772,219.886795 274.990112,221.292908 273.056976,222.646500 
	C276.512634,230.516800 279.765167,237.924438 283.347168,246.082443 
	C272.777710,253.981430 274.548462,266.592102 274.146912,278.681824 
	C278.561005,278.681824 282.314209,278.681824 286.142792,278.681824 
	C286.737823,272.082001 286.655334,265.639709 288.133362,259.577911 
	C288.922028,256.343323 292.405975,253.765915 294.673462,250.891907 
	C297.125732,253.972321 299.633148,257.011841 301.979065,260.171234 
	C302.397522,260.734802 302.137421,261.796265 302.206024,262.626526 
	C302.642029,267.904999 303.082336,273.183136 303.539276,278.678833 
	C307.637207,278.678833 311.514252,278.678833 316.089935,278.678833 
	C314.203644,268.698212 317.299500,258.200256 309.266144,249.278839 
M253.816818,226.594681 
	C258.733582,226.594681 263.650330,226.594681 268.491211,226.594681 
	C268.491211,222.508301 268.491211,219.243729 268.491211,215.720184 
	C258.270844,215.606552 248.103058,213.458099 239.641098,221.637634 
	C237.401581,223.802414 236.193115,225.469391 236.225601,228.608261 
	C236.384018,243.918655 236.291092,259.231598 236.307312,274.543640 
	C236.308823,275.976135 236.452118,277.408539 236.525925,278.773071 
	C247.897552,278.773071 258.819519,278.773071 269.727051,278.773071 
	C269.727051,275.128967 269.727051,271.738983 269.727051,267.974609 
	C262.680695,267.974609 255.933853,267.974609 249.083374,267.974609 
	C249.083374,262.508453 249.083374,257.433228 249.083374,251.869659 
	C254.338776,251.869659 259.408173,251.869659 264.505676,251.869659 
	C264.505676,247.990540 264.505676,244.611237 264.505676,240.782898 
	C259.096344,240.782898 254.018478,240.782898 248.876694,240.782898 
	C248.876694,237.664932 249.052490,234.988388 248.831421,232.345047 
	C248.565506,229.165283 249.706131,227.235748 253.816818,226.594681 
z"/>
<path fill="#FA8E4C" opacity="1.000000" stroke="none" 
	d="
M186.678406,222.889679 
	C190.227295,220.392303 193.476532,218.112854 197.090164,215.577774 
	C198.350784,217.046906 199.477127,218.359558 200.603470,219.672211 
	C200.528305,219.252182 200.453140,218.832138 200.377975,218.412109 
	C204.369843,217.789825 209.255463,215.413147 212.173096,216.899506 
	C218.865250,220.308777 225.966034,225.119614 226.885300,233.323486 
	C227.950272,242.827942 227.490768,252.558838 227.025879,262.159149 
	C226.726410,268.343536 215.289474,278.622528 209.058914,278.950043 
	C204.251175,279.202759 199.419739,279.017426 194.598938,279.000549 
	C193.449127,278.996521 192.299683,278.887451 190.749985,278.805511 
	C190.749985,267.405487 190.750214,256.122131 190.749908,244.838760 
	C190.749710,237.689392 191.141724,230.454315 186.061676,224.455841 
	C185.884186,224.246262 186.260529,223.567612 186.678406,222.889679 
M203.012817,258.463928 
	C203.012817,261.575409 203.012817,264.686920 203.012817,267.741425 
	C212.113251,268.630066 214.978745,266.169037 215.111664,257.518707 
	C215.216141,250.718765 215.444809,243.886353 214.891815,237.127808 
	C214.674911,234.476822 212.977097,231.446243 210.999008,229.626083 
	C209.793579,228.516907 206.652924,228.981689 204.614410,229.560211 
	C203.765533,229.801132 203.099915,232.170502 203.074585,233.584976 
	C202.932144,241.546356 203.010056,249.511673 203.012817,258.463928 
z"/>
<path fill="#00BB61" opacity="1.000000" stroke="none" 
	d="
M309.500916,249.546432 
	C317.299500,258.200256 314.203644,268.698212 316.089935,278.678833 
	C311.514252,278.678833 307.637207,278.678833 303.539276,278.678833 
	C303.082336,273.183136 302.642029,267.904999 302.206024,262.626526 
	C302.137421,261.796265 302.397522,260.734802 301.979065,260.171234 
	C299.633148,257.011841 297.125732,253.972321 294.673462,250.891907 
	C292.405975,253.765915 288.922028,256.343323 288.133362,259.577911 
	C286.655334,265.639709 286.737823,272.082001 286.142792,278.681824 
	C282.314209,278.681824 278.561005,278.681824 274.146912,278.681824 
	C274.548462,266.592102 272.777710,253.981430 283.347168,246.082443 
	C279.765167,237.924438 276.512634,230.516800 273.056976,222.646500 
	C274.990112,221.292908 276.997772,219.886795 279.005768,218.481201 
	C283.787811,215.133820 285.585846,215.528320 287.626038,221.120529 
	C289.041473,225.000320 289.435211,229.257111 290.894775,233.114944 
	C291.753998,235.386139 293.803925,237.206848 295.318329,239.230164 
	C296.944611,237.057159 299.418396,235.094727 300.021423,232.667496 
	C301.292877,227.549988 301.584656,222.189102 302.297394,216.784378 
	C306.230774,216.784378 309.999817,216.784378 314.226746,216.784378 
	C313.682281,226.975403 314.709595,237.251892 304.827240,244.168640 
	C306.496613,246.090469 307.881378,247.684647 309.500916,249.546432 
z"/>
<path fill="#F6F6F6" opacity="1.000000" stroke="none" 
	d="
M253.351074,226.607300 
	C249.706131,227.235748 248.565506,229.165283 248.831421,232.345047 
	C249.052490,234.988388 248.876694,237.664932 248.876694,240.782898 
	C254.018478,240.782898 259.096344,240.782898 264.505676,240.782898 
	C264.505676,244.611237 264.505676,247.990540 264.505676,251.869659 
	C259.408173,251.869659 254.338776,251.869659 249.083374,251.869659 
	C249.083374,257.433228 249.083374,262.508453 249.083374,267.974609 
	C255.933853,267.974609 262.680695,267.974609 269.727051,267.974609 
	C269.727051,271.738983 269.727051,275.128967 269.727051,278.773071 
	C258.819519,278.773071 247.897552,278.773071 236.525925,278.773071 
	C236.452118,277.408539 236.308823,275.976135 236.307312,274.543640 
	C236.291092,259.231598 236.384018,243.918655 236.225601,228.608261 
	C236.193115,225.469391 237.401581,223.802414 239.641098,221.637634 
	C248.103058,213.458099 258.270844,215.606552 268.491211,215.720184 
	C268.491211,219.243729 268.491211,222.508301 268.491211,226.594681 
	C263.650330,226.594681 258.733582,226.594681 253.351074,226.607300 
z"/>
<path fill="#000000" opacity="1.000000" stroke="none" 
	d="
M203.012817,257.969788 
	C203.010056,249.511673 202.932144,241.546356 203.074585,233.584976 
	C203.099915,232.170502 203.765533,229.801132 204.614410,229.560211 
	C206.652924,228.981689 209.793579,228.516907 210.999008,229.626083 
	C212.977097,231.446243 214.674911,234.476822 214.891815,237.127808 
	C215.444809,243.886353 215.216141,250.718765 215.111664,257.518707 
	C214.978745,266.169037 212.113251,268.630066 203.012817,267.741425 
	C203.012817,264.686920 203.012817,261.575409 203.012817,257.969788 
z"/>
</svg>